<svg width="214" height="85" viewBox="0 0 214 85" fill="none" xmlns="http://www.w3.org/2000/svg">
<path d="M75.3187 82.5173H54.6386L36.8955 52.7008H36.5432L19.2704 82.5173H0L26.3205 40.6347L1.29252 1.53687H22.0904L38.0708 28.9171H38.4232L54.6386 1.53687H73.909L48.646 40.9828L75.3187 82.5173Z" fill="white"/>
<path d="M110.592 84.0542C105.718 84.0542 101.356 83.4724 97.5038 82.3081C93.7308 81.0662 90.5472 79.3977 87.9532 77.302C85.3592 75.2064 83.3548 72.7228 81.9399 69.8512C80.6037 66.9794 79.9355 63.8361 79.9355 60.4213C79.9355 55.2213 81.3899 50.9914 84.2981 47.7317C87.2066 44.3944 91.1369 42.0659 96.0891 40.7467V39.8153C92.0801 38.3404 88.7786 36.0899 86.1846 33.0629C83.6693 30.0361 82.4116 26.1554 82.4116 21.421C82.4116 18.3166 83.0012 15.4449 84.1802 12.8061C85.438 10.1672 87.246 7.91647 89.6039 6.05378C92.0407 4.11346 94.9886 2.63882 98.4471 1.62987C101.984 0.54328 106.033 0 110.592 0C115.151 0 119.159 0.54328 122.619 1.62987C126.156 2.63882 129.103 4.11346 131.462 6.05378C133.898 7.91647 135.706 10.1672 136.885 12.8061C138.143 15.4449 138.772 18.3166 138.772 21.421C138.772 26.1554 137.474 30.0361 134.881 33.0629C132.366 36.0899 129.103 38.3404 125.094 39.8153V40.7467C130.046 42.0659 133.977 44.3944 136.885 47.7317C139.794 50.9914 141.248 55.2213 141.248 60.4213C141.248 63.8361 140.54 66.9794 139.126 69.8512C137.789 72.7228 135.824 75.2064 133.23 77.302C130.637 79.3977 127.414 81.0662 123.562 82.3081C119.789 83.4724 115.465 84.0542 110.592 84.0542ZM110.592 70.6662C114.522 70.6662 117.509 69.7735 119.553 67.9884C121.675 66.1257 122.737 63.5645 122.737 60.3049V57.9763C122.737 54.7168 121.675 52.1943 119.553 50.4092C117.509 48.5464 114.522 47.6151 110.592 47.6151C106.661 47.6151 103.635 48.5464 101.513 50.4092C99.469 52.1943 98.4471 54.7168 98.4471 57.9763V60.3049C98.4471 63.5645 99.469 66.1257 101.513 67.9884C103.635 69.7735 106.661 70.6662 110.592 70.6662ZM110.592 34.8093C114.365 34.8093 117.234 33.9555 119.199 32.2481C121.164 30.4629 122.147 28.057 122.147 25.03V23.1673C122.147 20.1404 121.164 17.7733 119.199 16.0658C117.234 14.2807 114.365 13.3882 110.592 13.3882C106.819 13.3882 103.95 14.2807 101.984 16.0658C100.019 17.7733 99.0367 20.1404 99.0367 23.1673V25.03C99.0367 28.057 100.019 30.4629 101.984 32.2481C103.95 33.9555 106.819 34.8093 110.592 34.8093Z" fill="white"/>
<path d="M181.426 84.0542C170.657 84.0542 162.678 80.3677 157.49 72.9944C152.301 65.6212 149.708 55.2989 149.708 42.0273C149.708 28.7554 152.301 18.4329 157.49 11.0598C162.678 3.68659 170.657 0 181.426 0C192.194 0 200.172 3.68659 205.36 11.0598C210.549 18.4329 213.142 28.7554 213.142 42.0273C213.142 55.2989 210.549 65.6212 205.36 72.9944C200.172 80.3677 192.194 84.0542 181.426 84.0542ZM181.426 69.269C186.142 69.269 189.403 67.5616 191.211 64.1467C193.02 60.7318 193.924 55.9197 193.924 49.7108V34.3434C193.924 28.1345 193.02 23.3226 191.211 19.9076C189.403 16.4926 186.142 14.7852 181.426 14.7852C176.708 14.7852 173.447 16.4926 171.638 19.9076C169.83 23.3226 168.926 28.1345 168.926 34.3434V49.7108C168.926 55.9197 169.83 60.7318 171.638 64.1467C173.447 67.5616 176.708 69.269 181.426 69.269Z" fill="white"/>
</svg>

